<svg xmlns="http://www.w3.org/2000/svg" viewBox="0 0 204.2 134.7"><style>.st104{fill:#ffb817}.st105{fill:#fed524}</style><g id="Layer_1"><path class="st104" d="M89.1 90.4c-.6-2.5-1.5-15-2-24.8-.3-6.2.2-10-.2-10.9-.9-1.9-4.4-3.2-7-.5-2.5 2.5-5 9.7-3.5 15.3 0 0-9.4-8.2-22.2-25.5-4.3-5.9-6.7-7.8-10.1-5-3.1 2.6 2 9.7 2 9.7L55.9 63c-4.3-4.8-10.4-12.3-13.6-17-4.4-6.1-7.7-7.9-10.6-5.6-3 2.4 1.2 8.8 1.2 8.7 2.4 3.9 4.9 7.6 7.4 11.1-1.4-1.8-2.6-3.5-3.6-4.9-4.4-6.1-7.1-7.8-10-5.5-3 2.4.5 8.6.6 8.5 1.2 1.9 2.3 3.7 3.5 5.5-3.2-3.5-4.9-3.6-7-2-3 2.4 1.4 9.9 1.4 9.8 6.1 9.9 12.5 18.4 18.7 25.6 0 0 7.8 8.5 14 12.2s8.3 6.2 13.3 5.2c7.9-1.6 18.1-7.5 18.4-15.2.1.1.4-4.9-.5-9z"/><path class="st105" d="M89.1 90.4c-.6-2.5-1.5-15-2-24.8-.3-6.2.2-10-.2-10.9-.9-1.9-4.4-3.2-7-.5-2.5 2.5-5 9.7-3.5 15.3 0 0-9.4-8.2-22.2-25.5-4.3-5.9-6.7-7.8-10.1-5-3.1 2.6 2 9.7 2 9.7L55.9 63c-4.3-4.8-10.4-12.3-13.6-17-4.4-6.1-7.7-7.9-10.6-5.6-3 2.4 1.2 8.8 1.2 8.7 2.4 3.9 4.9 7.6 7.4 11.1-1.4-1.8-2.6-3.5-3.6-4.9-4.4-6.1-7.1-7.8-10-5.5-3 2.4.5 8.6.6 8.5 1.2 1.9 2.3 3.7 3.5 5.5-3.2-3.5-4.9-3.6-7-2-3 2.4 1.4 9.9 1.4 9.8 6.1 9.9 13.9 18.4 20.2 25.6 0 0 7.7 7.6 13.8 11.3s7.2 5.9 12.2 4.9c7.9-1.6 18-6.3 18.2-14 .1.1.4-4.9-.5-9z"/><path class="st104" d="M46 84c-5.1-5.9-14.9-20.7-20-28.3.1 0 11 22.5 20 28.3zm7.7-6.2c-5.1-5.9-16-21.3-21-29 0 0 12 23.1 21 29zm10.4-6.1c-3-3.4-5.1-5.9-7.9-8.8C53.5 60.1 44 45.3 44 45.3s2.3 5.1 4.8 9.3c0 0 6.4 11.3 15.3 17.1zm12.3-2.2l.6 4.3s-3.5-6.8-3.9-7.5l3.3 3.2zm51.9 5.2c-3.1 3.1-7.8 5.1-8.5 5.3-1.8.6-7.7.5-9.2 2.2-1.3 1.5 0 8.6 6.8 9 5.9.4 12.4-1.4 15.2-4.5 2.8-3.1-5.3 39-5.7 41.2-.5 3 1.4 5.7 3.9 6.5s6.1 0 7.7-8.1 3.9-19 3.9-19 1.1 4.2 5.9 4.3c4.1.1 6.7-2.8 6.7-4.1 0 0 2.2 3.5 7 2.7 4.4-.7 5-4.7 5-4.7s2.6 1.8 6 .9c3.5-.9 4.7-4.3 5-7.2s.5-33.8-1.3-38.1c-4.6-11.3-32.2-10.2-33.3-6.3-.6 2.6-9.2 14.1-15.1 19.9z"/><path class="st105" d="M128 74.7c-3 3.1-7.7 5.1-8.3 5.3-1.8.6-7.6.5-9 2.2-1.3 1.5 0 8.5 6.6 8.9 5.8.3 12.2-1.4 14.9-4.5 2.7-3.1-5.4 39-5.7 41.1-.5 3 1.3 5.7 3.8 6.5 2.5.8 6 0 7.6-8.2s3.9-19 3.9-19 1 4.2 5.8 4.3c4 .1 6.6-2.8 6.6-4.1 0 0 2.1 3.5 6.8 2.6 4.3-.8 4.9-4.8 4.9-4.8s2.5 1.8 5.9.9c3.4-.9 4.6-4.3 4.9-7.3.3-2.9.6-33.8-1.1-38-4.4-11.3-31.5-10-32.6-6.2-.7 2.9-9.2 14.4-15 20.3zM184.9 47.8c-.2.1-.4.2-.6.4-.5.5-.5 1.3.1 1.8 11.1 10.2 6.2 21 6.2 21.1-.3.6 0 1.4.6 1.7.6.3 1.4 0 1.7-.6.1-.1 5.7-12.6-6.7-24.1-.4-.3-.8-.4-1.3-.3zm8.7-5.5c-.2.1-.4.1-.5.3-.5.5-.6 1.3-.1 1.8 12.2 13.6 7.9 26.9 7.8 27-.2.7.1 1.4.8 1.6.7.2 1.4-.1 1.6-.8.2-.6 4.9-14.8-8.4-29.6-.2-.4-.7-.5-1.2-.3zM22.1 87c.2-.1.4-.2.5-.5.4-.6.2-1.4-.4-1.8-12.4-8.3-9.3-19.6-9.3-19.7.2-.7-.2-1.4-.9-1.6-.7-.2-1.4.2-1.6.9 0 .1-3.7 13.3 10.4 22.7.4.2.9.2 1.3 0zm-7.7 6.9c.2-.1.3-.2.5-.4.5-.6.4-1.4-.2-1.8-14.1-11.5-12-25.3-12-25.5.1-.7-.4-1.4-1.1-1.5-.7-.1-1.4.3-1.5 1.1-.1.6-2.5 15.4 12.9 27.9.5.4 1 .4 1.4.2z"/><path d="M8.6 15.5c1.4-.4 2.7-.9 4.1-1.3 2.4 3.9 4.7 7.8 6.9 11.7 0-4.6 0-9.2.1-13.8 1.2-.3 2.3-.7 3.5-1 2.5 3.9 4.9 7.8 7.3 11.8-.1-4.5-.2-9.1-.2-13.6 1.4-.3 2.8-.7 4.1-1-.1 7.1-.1 14.2.1 21.3-1.3.3-2.5.6-3.8 1-2.4-4-4.9-8-7.4-11.9-.1 4.7-.1 9.3-.1 14-1.2.4-2.5.7-3.7 1.1-3.4-6.2-7.1-12.3-10.9-18.3zm29.2-8c4-.9 8.1-1.7 12.1-2.4.2 1.3.5 2.5.7 3.8l-7.8 1.5c.3 1.2.5 2.5.8 3.7 2.6-.5 5.2-1 7.7-1.5.2 1.2.5 2.5.7 3.7-2.6.5-5.1 1-7.6 1.5.4 1.8.7 3.6 1.1 5.3l7.5-1.5c.2 1.3.5 2.5.7 3.8-3.8.7-7.6 1.4-11.3 2.3-1.6-6.7-3.1-13.4-4.6-20.2zm31.6-5.3c1.4-.2 2.9-.3 4.3-.5 3.6 6.6 7 13.2 10.2 19.9l-4.2.3c-.7-1.4-1.4-2.7-2.1-4.1-2.9.3-5.8.6-8.7 1l-1.2 4.5c-1.4.2-2.8.4-4.1.6 1.8-7.3 3.7-14.5 5.8-21.7zm2.8 5.2c-.7 2.5-1.4 4.9-2.1 7.4 1.9-.2 3.8-.4 5.8-.6-1.3-2.3-2.5-4.5-3.7-6.8zM85.9.7l4.5-.3c2.5-.1 4.3 0 5.3.4 1.1.4 1.9 1 2.6 2 .7.9 1 2.1 1 3.3 0 1.4-.3 2.5-1 3.4-.7.9-1.7 1.7-3 2.2 1.8 3 3.6 6 5.3 9.1-1.5 0-2.9.1-4.4.1-1.7-2.9-3.4-5.7-5.2-8.6h-.4c.2 2.9.3 5.9.5 8.8-1.3.1-2.7.1-4 .2-.3-6.8-.7-13.7-1.2-20.6zm4.7 7.8c.4 0 .9 0 1.3-.1 1.3-.1 2.2-.3 2.7-.6s.7-.9.7-1.7c0-.5-.2-.8-.4-1.2-.3-.3-.6-.6-1-.7-.4-.1-1.2-.2-2.3-.1-.4 0-.8 0-1.2.1.1 1.5.1 2.9.2 4.3zM103.8 0c4.1 0 8.2 0 12.3.1 0 1.3-.1 2.6-.1 3.9-2.6-.1-5.3-.1-7.9-.1v3.8c2.6 0 5.2.1 7.8.1 0 1.3-.1 2.5-.1 3.8-2.6-.1-5.2-.1-7.7-.1V17c2.5 0 5.1.1 7.6.1 0 1.3-.1 2.6-.1 3.9-3.8-.1-7.7-.2-11.5-.1-.2-7.1-.2-14-.3-20.9zm25.1.8c1.4.1 2.9.2 4.3.3-.2 2.6-.4 5.2-.7 7.8 2.4.2 4.9.4 7.3.7.3-2.6.6-5.2.8-7.8 1.4.2 2.9.3 4.3.5-.8 6.9-1.7 13.7-2.5 20.6-1.3-.2-2.7-.3-4-.5.3-3 .7-6 1-9-2.4-.3-4.8-.5-7.2-.7-.3 3-.5 6-.8 9.1-1.4-.1-2.7-.2-4.1-.3.6-6.9 1.1-13.8 1.6-20.7zM150.1 3c4.1.6 8.1 1.2 12.2 1.9-.2 1.3-.5 2.5-.7 3.8-2.6-.5-5.2-.9-7.9-1.3-.2 1.2-.4 2.5-.6 3.7 2.6.4 5.2.8 7.8 1.3-.2 1.2-.4 2.5-.7 3.7-2.6-.5-5.1-.9-7.7-1.3-.3 1.8-.6 3.6-.8 5.4 2.5.4 5 .8 7.5 1.3-.2 1.3-.5 2.5-.7 3.8-3.8-.7-7.6-1.3-11.4-1.8 1.1-6.8 2.1-13.6 3-20.5zm16.4 2.8l4.5.9c2.4.5 4.1 1.1 5.1 1.7.9.6 1.6 1.5 2 2.6.4 1.1.5 2.2.2 3.5-.3 1.3-.9 2.4-1.8 3.1-.9.7-2.1 1.2-3.5 1.3 1 3.4 2 6.8 2.9 10.1-1.4-.3-2.9-.7-4.3-1-.9-3.2-1.9-6.4-2.9-9.6-.1 0-.2-.1-.4-.1-.6 2.9-1.2 5.7-1.8 8.6-1.3-.3-2.6-.5-3.9-.8 1.3-6.8 2.6-13.5 3.9-20.3zm2.6 8.8c.4.1.9.2 1.3.3 1.3.3 2.2.3 2.8.1.6-.2.9-.7 1.1-1.4.1-.4.1-.9-.1-1.2-.2-.4-.5-.7-.8-.9-.4-.2-1.1-.5-2.2-.7-.4-.1-.8-.2-1.1-.2-.4 1.2-.7 2.6-1 4zm15-4.9c4 1 8 2.1 12 3.3-.4 1.2-.7 2.5-1.1 3.7-2.6-.8-5.1-1.5-7.7-2.2-.3 1.2-.6 2.4-1 3.6 2.5.7 5.1 1.4 7.6 2.1-.4 1.2-.7 2.4-1.1 3.6l-7.5-2.1c-.5 1.8-.9 3.5-1.4 5.3 2.5.7 4.9 1.4 7.4 2.1-.4 1.2-.7 2.5-1.1 3.7-3.7-1.1-7.4-2.1-11.2-3.1 1.7-6.6 3.4-13.3 5.1-20zm12.7 20.5c.7.2 1.2.6 1.5 1.2.3.6.4 1.2.2 1.9-.2.6-.6 1.1-1.2 1.4-.6.3-1.2.4-1.9.1-.7-.2-1.1-.6-1.5-1.2-.3-.6-.4-1.2-.2-1.8.2-.6.6-1.1 1.2-1.4.6-.3 1.2-.4 1.9-.2zm3-16.7c1.4.4 2.7.8 4.1 1.3-1.6 4.8-3.1 9.6-4.7 14.4l-3.9-1.2c1.5-4.8 3-9.6 4.5-14.5z" fill="#42c162"/></g></svg>